#tb 0: 1/25
#media_type 0: video
#codec_id 0: rawvideo
#dimensions 0: 352x288
#sar 0: 0/1
0,          0,          0,        1,   152064, 0xd48c87b3
0,          1,          1,        1,   152064, 0xb7a67f8f
0,          2,          2,        1,   152064, 0x3c3f3c11
0,          3,          3,        1,   152064, 0xc411af54
0,          4,          4,        1,   152064, 0xde2efb95
0,          5,          5,        1,   152064, 0xa4787125
0,          6,          6,        1,   152064, 0x3c17085a
0,          7,          7,        1,   152064, 0xee217266
0,          8,          8,        1,   152064, 0xa23a8e9d
0,          9,          9,        1,   152064, 0x70a06d90
